<svg width="738" height="280" viewBox="0 0 738 280" fill="none" xmlns="http://www.w3.org/2000/svg">
<path d="M0 16C0 7.16344 7.16344 0 16 0H140C148.837 0 156 7.16344 156 16C156 24.8366 148.837 32 140 32H16C7.16344 32 0 24.8366 0 16Z" fill="#00CA72"/>
<path d="M0 72C0 63.1634 7.16344 56 16 56H140C148.837 56 156 63.1634 156 72C156 80.8366 148.837 88 140 88H16C7.16344 88 0 80.8366 0 72Z" fill="#FFCC00"/>
<path d="M135 144C117.327 144 103 158.327 103 176V208C103 235.559 120.419 259.048 144.848 268.061C147.76 268.472 150 270.974 150 274C150 277.314 147.314 280 144 280H12C8.68629 280 6 277.314 6 274C6 270.974 8.23961 268.473 11.1514 268.061C35.5802 259.048 53 235.559 53 208V176C53 158.327 38.6731 144 21 144H16C7.16344 144 0 136.837 0 128C0 119.163 7.16344 112 16 112H140C148.837 112 156 119.163 156 128C156 136.837 148.837 144 140 144H135Z" fill="#FB275D"/>
<path d="M236 139.986V11.7599H281.731C295.122 11.7599 306.779 14.5098 316.702 20.0095C326.745 25.3896 334.516 32.9218 340.016 42.606C345.515 52.1707 348.265 63.2298 348.265 75.7834C348.265 88.3371 345.515 99.456 340.016 109.14C334.516 118.705 326.745 126.237 316.702 131.737C306.779 137.236 295.122 139.986 281.731 139.986H236ZM265.77 114.7H281.731C289.024 114.7 295.301 113.145 300.562 110.037C305.822 106.809 309.827 102.266 312.577 96.4073C315.447 90.5489 316.881 83.6743 316.881 75.7834C316.881 67.8926 315.447 61.0778 312.577 55.339C309.827 49.4806 305.822 44.9972 300.562 41.8886C295.301 38.6606 289.024 37.0465 281.731 37.0465H265.77V114.7Z" fill="white"/>
<path d="M470.107 11.7599V89.4131C470.107 106.749 465.683 120.02 456.836 129.226C448.108 138.312 435.435 142.856 418.816 142.856C408.773 142.856 399.986 140.823 392.454 136.758C385.041 132.693 379.183 126.954 374.879 119.542C370.575 112.129 368.183 103.342 367.705 93.1792L397.117 89.7718C397.714 98.38 399.807 104.956 403.393 109.499C407.1 113.923 412.241 116.134 418.816 116.134C425.87 116.134 431.191 113.863 434.777 109.32C438.484 104.776 440.337 98.1409 440.337 89.4131V11.7599H470.107Z" fill="white"/>
<path d="M593.836 139.986H505.602V11.7599H593.836V37.0465H535.372V114.7H593.836V139.986ZM590.608 88.1577H533.578V62.8711H590.608V88.1577Z" fill="white"/>
<path d="M624.728 139.986V11.7599H670.459C683.85 11.7599 695.507 14.5098 705.43 20.0095C715.473 25.3896 723.244 32.9218 728.744 42.606C734.244 52.1707 736.993 63.2298 736.993 75.7834C736.993 88.3371 734.244 99.456 728.744 109.14C723.244 118.705 715.473 126.237 705.43 131.737C695.507 137.236 683.85 139.986 670.459 139.986H624.728ZM654.498 114.7H670.459C677.752 114.7 684.029 113.145 689.29 110.037C694.55 106.809 698.555 102.266 701.305 96.4073C704.175 90.5489 705.609 83.6743 705.609 75.7834C705.609 67.8926 704.175 61.0778 701.305 55.339C698.555 49.4806 694.55 44.9972 689.29 41.8886C684.029 38.6606 677.752 37.0465 670.459 37.0465H654.498V114.7Z" fill="white"/>
<path d="M236 253.234V202.142H252.435C257.39 202.142 261.725 203.238 265.44 205.429C269.204 207.62 272.134 210.645 274.23 214.504C276.373 218.315 277.445 222.698 277.445 227.652C277.445 232.607 276.373 237.013 274.23 240.872C272.134 244.731 269.204 247.756 265.44 249.947C261.725 252.138 257.39 253.234 252.435 253.234H236ZM241.717 248.16H252.435C256.342 248.16 259.7 247.303 262.511 245.588C265.369 243.873 267.584 241.467 269.156 238.371C270.728 235.274 271.514 231.701 271.514 227.652C271.514 223.603 270.728 220.054 269.156 217.005C267.584 213.909 265.369 211.503 262.511 209.788C259.7 208.073 256.342 207.215 252.435 207.215H241.717V248.16Z" fill="white"/>
<path d="M317.065 243.158L320.78 246.731C318.922 249.304 316.731 251.233 314.206 252.519C311.729 253.758 308.99 254.377 305.989 254.377C302.463 254.377 299.343 253.567 296.628 251.948C293.96 250.328 291.864 248.113 290.339 245.302C288.863 242.444 288.124 239.228 288.124 235.655C288.124 232.083 288.863 228.891 290.339 226.08C291.864 223.222 293.912 220.983 296.485 219.363C299.105 217.743 302.035 216.934 305.274 216.934C308.466 216.934 311.276 217.72 313.706 219.292C316.183 220.864 318.113 223.055 319.494 225.866C320.876 228.629 321.566 231.821 321.566 235.441V235.87H315.993V235.37C315.993 231.273 315.016 227.986 313.063 225.508C311.11 222.984 308.513 221.721 305.274 221.721C303.083 221.721 301.106 222.317 299.343 223.508C297.628 224.651 296.27 226.271 295.27 228.367C294.317 230.463 293.841 232.869 293.841 235.584C293.841 238.299 294.341 240.705 295.341 242.801C296.39 244.897 297.842 246.565 299.7 247.803C301.606 248.994 303.821 249.59 306.346 249.59C308.537 249.59 310.514 249.066 312.277 248.018C314.039 246.97 315.635 245.35 317.065 243.158ZM321.566 237.585H292.483V233.083H320.494L321.566 235.441V237.585Z" fill="white"/>
<path d="M330.94 247.803L334.512 244.016C336.037 245.779 337.776 247.184 339.729 248.232C341.73 249.232 343.969 249.733 346.446 249.733C349.018 249.733 351.091 249.137 352.663 247.946C354.282 246.755 355.092 245.207 355.092 243.301C355.092 241.729 354.401 240.491 353.02 239.586C351.686 238.633 349.376 237.918 346.089 237.442C341.086 236.632 337.561 235.465 335.513 233.94C333.512 232.416 332.512 230.296 332.512 227.581C332.512 225.437 333.083 223.579 334.227 222.007C335.37 220.387 336.966 219.149 339.014 218.291C341.063 217.386 343.421 216.934 346.089 216.934C349.042 216.934 351.686 217.505 354.02 218.649C356.355 219.792 358.427 221.412 360.237 223.508L356.664 227.295C355.33 225.532 353.782 224.151 352.019 223.15C350.305 222.102 348.328 221.578 346.089 221.578C343.754 221.578 341.849 222.126 340.372 223.222C338.895 224.27 338.157 225.628 338.157 227.295C338.157 228.2 338.419 228.986 338.943 229.653C339.467 230.272 340.348 230.796 341.587 231.225C342.825 231.654 344.493 232.035 346.589 232.368C351.781 233.131 355.449 234.369 357.593 236.084C359.737 237.752 360.809 240.133 360.809 243.23C360.809 245.421 360.189 247.374 358.951 249.089C357.712 250.757 355.997 252.067 353.806 253.02C351.662 253.925 349.209 254.377 346.446 254.377C343.016 254.377 340.062 253.806 337.585 252.662C335.108 251.471 332.893 249.852 330.94 247.803Z" fill="white"/>
<path d="M379.33 253.234H373.827V218.077H379.33V253.234ZM380.401 204.786C380.401 205.929 380.02 206.882 379.258 207.644C378.544 208.359 377.638 208.716 376.543 208.716C375.447 208.716 374.518 208.359 373.756 207.644C373.041 206.882 372.684 205.929 372.684 204.786C372.684 203.643 373.041 202.714 373.756 201.999C374.518 201.237 375.447 200.856 376.543 200.856C377.638 200.856 378.544 201.237 379.258 201.999C380.02 202.714 380.401 203.643 380.401 204.786Z" fill="white"/>
<path d="M427.783 250.161C427.783 253.639 427.021 256.735 425.496 259.451C424.019 262.166 421.947 264.31 419.279 265.882C416.659 267.454 413.658 268.24 410.276 268.24C407.227 268.24 404.416 267.645 401.844 266.454C399.319 265.31 397.175 263.667 395.413 261.523L399.057 257.807C401.82 261.571 405.536 263.452 410.204 263.452C412.586 263.452 414.682 262.881 416.493 261.737C418.303 260.642 419.708 259.093 420.708 257.093C421.757 255.092 422.281 252.781 422.281 250.161V236.656C422.281 233.702 421.78 231.106 420.78 228.867C419.78 226.628 418.374 224.889 416.564 223.651C414.801 222.364 412.753 221.721 410.419 221.721C408.132 221.721 406.084 222.317 404.273 223.508C402.511 224.651 401.129 226.247 400.129 228.295C399.128 230.344 398.628 232.702 398.628 235.37C398.628 238.037 399.128 240.395 400.129 242.444C401.177 244.445 402.606 246.017 404.416 247.16C406.226 248.303 408.299 248.875 410.633 248.875C412.824 248.875 414.801 248.375 416.564 247.374C418.374 246.374 419.827 244.993 420.923 243.23C422.066 241.467 422.733 239.49 422.924 237.299L424.067 238.728C424.4 241.539 423.972 244.087 422.781 246.374C421.637 248.613 419.946 250.399 417.707 251.733C415.468 253.02 412.848 253.663 409.847 253.663C406.56 253.663 403.63 252.877 401.058 251.305C398.485 249.733 396.461 247.565 394.984 244.802C393.555 242.039 392.84 238.895 392.84 235.37C392.84 231.892 393.578 228.772 395.055 226.009C396.532 223.198 398.533 220.983 401.058 219.363C403.583 217.743 406.441 216.934 409.633 216.934C413.396 216.934 416.54 218.005 419.065 220.149C421.59 222.245 423.138 225.104 423.71 228.724H422.352V218.077H427.783V250.161Z" fill="white"/>
<path d="M474.082 253.234H468.58V233.012C468.58 229.296 467.794 226.509 466.222 224.651C464.697 222.745 462.625 221.793 460.005 221.793C458.1 221.793 456.313 222.341 454.646 223.436C452.978 224.484 451.621 226.175 450.573 228.51C449.525 230.796 449.001 233.774 449.001 237.442V253.234H443.498V218.077H448.929V228.796H448C448.524 225.89 449.429 223.579 450.716 221.864C452.049 220.102 453.621 218.839 455.432 218.077C457.242 217.315 459.124 216.934 461.077 216.934C465.126 216.934 468.294 218.267 470.581 220.935C472.915 223.555 474.082 227.366 474.082 232.368V253.234Z" fill="white"/>
<path d="M506.129 245.016L510.202 240.943C511.727 242.801 513.346 244.349 515.061 245.588C516.776 246.779 518.587 247.684 520.492 248.303C522.445 248.923 524.494 249.232 526.637 249.232C530.639 249.232 533.831 248.303 536.213 246.445C538.642 244.588 539.857 242.11 539.857 239.014C539.857 236.346 538.809 234.298 536.713 232.869C534.664 231.392 531.163 230.248 526.209 229.439C519.73 228.391 515.085 226.819 512.274 224.722C509.464 222.579 508.058 219.554 508.058 215.647C508.058 212.789 508.821 210.264 510.345 208.073C511.917 205.881 514.061 204.167 516.776 202.928C519.539 201.642 522.66 200.999 526.137 200.999C530.091 200.999 533.664 201.737 536.856 203.214C540.048 204.643 542.954 206.858 545.574 209.859L541.572 213.861C539.333 211.193 536.975 209.24 534.498 208.001C532.068 206.763 529.281 206.144 526.137 206.144C522.374 206.144 519.396 206.977 517.205 208.645C515.061 210.312 513.989 212.622 513.989 215.576C513.989 217.863 514.966 219.649 516.919 220.935C518.872 222.221 522.136 223.222 526.709 223.936C533.521 224.984 538.38 226.676 541.286 229.01C544.24 231.297 545.717 234.607 545.717 238.942C545.717 241.944 544.907 244.611 543.287 246.946C541.667 249.28 539.404 251.114 536.499 252.448C533.64 253.734 530.353 254.377 526.637 254.377C522.588 254.377 518.825 253.591 515.347 252.019C511.917 250.447 508.845 248.113 506.129 245.016Z" fill="white"/>
<path d="M576.486 253.234H568.626C566.149 253.234 564.267 252.567 562.981 251.233C561.695 249.852 561.051 247.898 561.051 245.374V207.787H566.554V244.873C566.554 246.017 566.839 246.922 567.411 247.589C567.983 248.208 568.84 248.518 569.984 248.518H576.486V253.234ZM575.986 222.793H554.334V218.077H575.986V222.793Z" fill="white"/>
<path d="M618.639 253.234H613.209V246.374L613.137 244.373V218.077H618.639V253.234ZM613.78 238.014L614.924 239.514C615.114 242.372 614.614 244.921 613.423 247.16C612.28 249.399 610.66 251.162 608.564 252.448C606.468 253.734 604.038 254.377 601.275 254.377C597.321 254.377 594.153 253.115 591.771 250.59C589.389 248.065 588.199 244.421 588.199 239.657V218.077H593.701V239.085C593.701 242.515 594.463 245.135 595.987 246.946C597.512 248.708 599.655 249.59 602.419 249.59C604.372 249.59 606.158 249.113 607.778 248.16C609.445 247.16 610.803 245.802 611.851 244.087C612.947 242.325 613.59 240.3 613.78 238.014Z" fill="white"/>
<path d="M661.651 253.234V243.73L661.579 243.587V236.656C661.579 233.702 661.079 231.106 660.079 228.867C659.078 226.628 657.673 224.889 655.863 223.651C654.1 222.364 652.051 221.721 649.717 221.721C647.431 221.721 645.382 222.317 643.572 223.508C641.809 224.699 640.428 226.342 639.427 228.438C638.427 230.534 637.927 232.94 637.927 235.655C637.927 238.371 638.427 240.777 639.427 242.873C640.475 244.969 641.905 246.612 643.715 247.803C645.525 248.994 647.597 249.59 649.932 249.59C652.123 249.59 654.1 249.089 655.863 248.089C657.673 247.089 659.126 245.731 660.221 244.016C661.365 242.253 662.032 240.253 662.222 238.014L663.294 239.443C663.628 242.253 663.175 244.802 661.936 247.089C660.745 249.328 659.03 251.114 656.791 252.448C654.552 253.734 652.004 254.377 649.146 254.377C645.858 254.377 642.929 253.567 640.356 251.948C637.831 250.328 635.831 248.113 634.354 245.302C632.877 242.492 632.139 239.276 632.139 235.655C632.139 232.083 632.853 228.891 634.282 226.08C635.759 223.222 637.76 220.983 640.285 219.363C642.857 217.743 645.739 216.934 648.931 216.934C651.313 216.934 653.504 217.434 655.505 218.434C657.506 219.435 659.173 220.816 660.507 222.579C661.841 224.341 662.675 226.39 663.008 228.724H661.579V201.785H667.081V253.234H661.651Z" fill="white"/>
<path d="M688.299 253.234H682.797V218.077H688.299V253.234ZM689.371 204.786C689.371 205.929 688.99 206.882 688.228 207.644C687.513 208.359 686.608 208.716 685.512 208.716C684.417 208.716 683.488 208.359 682.725 207.644C682.011 206.882 681.654 205.929 681.654 204.786C681.654 203.643 682.011 202.714 682.725 201.999C683.488 201.237 684.417 200.856 685.512 200.856C686.608 200.856 687.513 201.237 688.228 201.999C688.99 202.714 689.371 203.643 689.371 204.786Z" fill="white"/>
<path d="M719.388 254.377C716.006 254.377 712.981 253.567 710.313 251.948C707.645 250.328 705.549 248.113 704.025 245.302C702.548 242.492 701.81 239.276 701.81 235.655C701.81 232.035 702.548 228.819 704.025 226.009C705.549 223.198 707.645 220.983 710.313 219.363C712.981 217.743 716.006 216.934 719.388 216.934C722.818 216.934 725.867 217.743 728.535 219.363C731.202 220.983 733.275 223.198 734.752 226.009C736.276 228.819 737.038 232.035 737.038 235.655C737.038 239.276 736.276 242.492 734.752 245.302C733.275 248.113 731.202 250.328 728.535 251.948C725.867 253.567 722.818 254.377 719.388 254.377ZM719.388 249.59C721.77 249.59 723.842 248.994 725.605 247.803C727.368 246.612 728.749 244.969 729.75 242.873C730.75 240.777 731.25 238.371 731.25 235.655C731.25 232.892 730.75 230.487 729.75 228.438C728.749 226.342 727.368 224.699 725.605 223.508C723.842 222.317 721.77 221.721 719.388 221.721C717.054 221.721 715.005 222.317 713.243 223.508C711.48 224.699 710.099 226.342 709.098 228.438C708.098 230.487 707.598 232.892 707.598 235.655C707.598 238.371 708.098 240.777 709.098 242.873C710.099 244.969 711.48 246.612 713.243 247.803C715.005 248.994 717.054 249.59 719.388 249.59Z" fill="white"/>
</svg>
