<svg width="116" height="44" viewBox="0 0 116 44" fill="none" xmlns="http://www.w3.org/2000/svg">
<path d="M0 2.51429C0 1.12568 1.12568 0 2.51429 0H22C23.3886 0 24.5143 1.12568 24.5143 2.51429C24.5143 3.90289 23.3886 5.02857 22 5.02857H2.51429C1.12568 5.02857 0 3.90289 0 2.51429Z" fill="#00CA72"/>
<path d="M0 11.3143C0 9.92568 1.12568 8.8 2.51429 8.8H22C23.3886 8.8 24.5143 9.92568 24.5143 11.3143C24.5143 12.7029 23.3886 13.8286 22 13.8286H2.51429C1.12568 13.8286 0 12.7029 0 11.3143Z" fill="#FFCC00"/>
<path d="M21.2143 22.6286C18.4371 22.6286 16.1857 24.8799 16.1857 27.6571V32.6857C16.1857 37.0164 18.923 40.7075 22.7618 42.1238C23.2194 42.1885 23.5714 42.5816 23.5714 43.0571C23.5714 43.5779 23.1493 44 22.6286 44H1.88571C1.36499 44 0.942857 43.5779 0.942857 43.0571C0.942857 42.5817 1.2948 42.1886 1.75236 42.1238C5.59118 40.7075 8.32857 37.0164 8.32857 32.6857V27.6571C8.32857 24.8799 6.0772 22.6286 3.3 22.6286H2.51429C1.12568 22.6286 0 21.5029 0 20.1143C0 18.7257 1.12568 17.6 2.51429 17.6H22C23.3886 17.6 24.5143 18.7257 24.5143 20.1143C24.5143 21.5029 23.3886 22.6286 22 22.6286H21.2143Z" fill="#FB275D"/>
<path d="M37.0857 21.9979V1.84802H44.272C46.3762 1.84802 48.208 2.28014 49.7674 3.14438C51.3456 3.98983 52.5668 5.17345 53.431 6.69526C54.2953 8.19828 54.7274 9.93615 54.7274 11.9089C54.7274 13.8816 54.2953 15.6288 53.431 17.1506C52.5668 18.6537 51.3456 19.8373 49.7674 20.7015C48.208 21.5658 46.3762 21.9979 44.272 21.9979H37.0857ZM41.7638 18.0243H44.272C45.4181 18.0243 46.4044 17.78 47.2311 17.2915C48.0577 16.7843 48.6871 16.0703 49.1192 15.1497C49.5701 14.2291 49.7956 13.1488 49.7956 11.9089C49.7956 10.6689 49.5701 9.59797 49.1192 8.69615C48.6871 7.77555 48.0577 7.07101 47.2311 6.58253C46.4044 6.07526 45.4181 5.82163 44.272 5.82163H41.7638V18.0243Z" fill="#313339"/>
<path d="M73.8739 1.84802V14.0507C73.8739 16.7749 73.1788 18.8603 71.7885 20.307C70.417 21.7348 68.4255 22.4488 65.814 22.4488C64.2358 22.4488 62.8549 22.1294 61.6713 21.4906C60.5064 20.8518 59.5858 19.95 58.9095 18.7852C58.2331 17.6203 57.8574 16.2394 57.7822 14.6425L62.404 14.107C62.498 15.4597 62.8267 16.4931 63.3904 17.207C63.9728 17.9021 64.7807 18.2497 65.814 18.2497C66.9225 18.2497 67.7585 17.8928 68.3221 17.1788C68.9046 16.4649 69.1958 15.4222 69.1958 14.0507V1.84802H73.8739Z" fill="#313339"/>
<path d="M93.317 21.9979H79.4517V1.84802H93.317V5.82163H84.1298V18.0243H93.317V21.9979ZM92.8098 13.8534H83.848V9.87978H92.8098V13.8534Z" fill="#313339"/>
<path d="M98.1715 21.9979V1.84802H105.358C107.462 1.84802 109.294 2.28014 110.853 3.14438C112.431 3.98983 113.653 5.17345 114.517 6.69526C115.381 8.19828 115.813 9.93615 115.813 11.9089C115.813 13.8816 115.381 15.6288 114.517 17.1506C113.653 18.6537 112.431 19.8373 110.853 20.7015C109.294 21.5658 107.462 21.9979 105.358 21.9979H98.1715ZM102.85 18.0243H105.358C106.504 18.0243 107.49 17.78 108.317 17.2915C109.144 16.7843 109.773 16.0703 110.205 15.1497C110.656 14.2291 110.881 13.1488 110.881 11.9089C110.881 10.6689 110.656 9.59797 110.205 8.69615C109.773 7.77555 109.144 7.07101 108.317 6.58253C107.49 6.07526 106.504 5.82163 105.358 5.82163H102.85V18.0243Z" fill="#313339"/>
<path d="M37.0857 39.7939V31.7652H39.6684C40.4469 31.7652 41.1281 31.9374 41.7121 32.2817C42.3034 32.6261 42.7638 33.1014 43.0932 33.7078C43.4301 34.3067 43.5985 34.9954 43.5985 35.7739C43.5985 36.5525 43.4301 37.245 43.0932 37.8513C42.7638 38.4577 42.3034 38.933 41.7121 39.2774C41.1281 39.6218 40.4469 39.7939 39.6684 39.7939H37.0857ZM37.984 38.9967H39.6684C40.2822 38.9967 40.81 38.8619 41.2517 38.5924C41.7008 38.3229 42.0489 37.9449 42.296 37.4583C42.543 36.9717 42.6665 36.4103 42.6665 35.7739C42.6665 35.1376 42.543 34.5799 42.296 34.1008C42.0489 33.6142 41.7008 33.2362 41.2517 32.9667C40.81 32.6972 40.2822 32.5624 39.6684 32.5624H37.984V38.9967Z" fill="#313339"/>
<path d="M49.8244 38.2106L50.4083 38.7721C50.1164 39.1763 49.772 39.4795 49.3752 39.6816C48.986 39.8763 48.5555 39.9736 48.0839 39.9736C47.5299 39.9736 47.0396 39.8463 46.6129 39.5918C46.1937 39.3373 45.8643 38.9892 45.6248 38.5475C45.3927 38.0984 45.2767 37.593 45.2767 37.0316C45.2767 36.4701 45.3927 35.9686 45.6248 35.5269C45.8643 35.0777 46.1862 34.7259 46.5904 34.4714C47.0022 34.2169 47.4626 34.0896 47.9716 34.0896C48.4732 34.0896 48.9149 34.2131 49.2966 34.4602C49.6859 34.7072 49.9891 35.0515 50.2062 35.4932C50.4233 35.9274 50.5318 36.429 50.5318 36.9979V37.0653H49.656V36.9867C49.656 36.3429 49.5025 35.8264 49.1956 35.4371C48.8887 35.0403 48.4807 34.8419 47.9716 34.8419C47.6273 34.8419 47.3166 34.9355 47.0396 35.1227C46.7701 35.3023 46.5568 35.5569 46.3996 35.8862C46.2498 36.2156 46.175 36.5937 46.175 37.0204C46.175 37.4471 46.2536 37.8251 46.4108 38.1545C46.5755 38.4839 46.8038 38.7459 47.0958 38.9405C47.3952 39.1277 47.7433 39.2213 48.1401 39.2213C48.4844 39.2213 48.7951 39.1389 49.0721 38.9742C49.349 38.8095 49.5998 38.555 49.8244 38.2106ZM50.5318 37.3348H45.9616V36.6274H50.3634L50.5318 36.9979V37.3348Z" fill="#313339"/>
<path d="M52.0048 38.9405L52.5662 38.3454C52.8058 38.6224 53.079 38.8432 53.3859 39.0079C53.7003 39.1651 54.0522 39.2437 54.4415 39.2437C54.8457 39.2437 55.1714 39.1501 55.4184 38.963C55.6729 38.7758 55.8002 38.5325 55.8002 38.2331C55.8002 37.9861 55.6916 37.7914 55.4745 37.6492C55.2649 37.4995 54.9019 37.3872 54.3853 37.3123C53.5993 37.1851 53.0453 37.0017 52.7234 36.7621C52.409 36.5225 52.2518 36.1894 52.2518 35.7627C52.2518 35.4258 52.3416 35.1339 52.5213 34.8869C52.701 34.6323 52.9517 34.4377 53.2736 34.3029C53.5955 34.1607 53.9661 34.0896 54.3853 34.0896C54.8495 34.0896 55.2649 34.1794 55.6317 34.3591C55.9986 34.5388 56.3242 34.7933 56.6087 35.1227L56.0472 35.7178C55.8376 35.4408 55.5943 35.2237 55.3173 35.0665C55.0478 34.9018 54.7372 34.8195 54.3853 34.8195C54.0185 34.8195 53.7191 34.9056 53.487 35.0777C53.2549 35.2424 53.1389 35.4558 53.1389 35.7178C53.1389 35.86 53.1801 35.9836 53.2624 36.0884C53.3448 36.1857 53.4833 36.268 53.6779 36.3354C53.8725 36.4028 54.1345 36.4627 54.4639 36.5151C55.2799 36.6348 55.8563 36.8295 56.1932 37.099C56.5301 37.361 56.6985 37.7353 56.6985 38.2219C56.6985 38.5662 56.6012 38.8732 56.4065 39.1427C56.2119 39.4047 55.9424 39.6105 55.5981 39.7603C55.2612 39.9025 54.8757 39.9736 54.4415 39.9736C53.9025 39.9736 53.4383 39.8838 53.0491 39.7041C52.6598 39.517 52.3117 39.2624 52.0048 38.9405Z" fill="#313339"/>
<path d="M59.6089 39.7939H58.7443V34.2693H59.6089V39.7939ZM59.7774 32.1807C59.7774 32.3603 59.7175 32.51 59.5977 32.6298C59.4854 32.7421 59.3432 32.7983 59.171 32.7983C58.9988 32.7983 58.8528 32.7421 58.7331 32.6298C58.6208 32.51 58.5646 32.3603 58.5646 32.1807C58.5646 32.001 58.6208 31.855 58.7331 31.7427C58.8528 31.623 58.9988 31.5631 59.171 31.5631C59.3432 31.5631 59.4854 31.623 59.5977 31.7427C59.7175 31.855 59.7774 32.001 59.7774 32.1807Z" fill="#313339"/>
<path d="M67.223 39.3111C67.223 39.8576 67.1032 40.3442 66.8637 40.7709C66.6316 41.1976 66.306 41.5344 65.8867 41.7815C65.475 42.0285 65.0034 42.152 64.4719 42.152C63.9928 42.152 63.5511 42.0585 63.1469 41.8713C62.7501 41.6916 62.4132 41.4334 62.1362 41.0965L62.7089 40.5126C63.1431 41.104 63.727 41.3997 64.4606 41.3997C64.8349 41.3997 65.1643 41.3099 65.4488 41.1302C65.7333 40.958 65.9541 40.7147 66.1113 40.4003C66.276 40.0859 66.3583 39.7228 66.3583 39.3111V37.1888C66.3583 36.7247 66.2797 36.3167 66.1225 35.9648C65.9653 35.613 65.7445 35.3398 65.46 35.1451C65.183 34.943 64.8611 34.8419 64.4943 34.8419C64.135 34.8419 63.8131 34.9355 63.5286 35.1227C63.2517 35.3023 63.0346 35.5531 62.8774 35.875C62.7201 36.1969 62.6415 36.5675 62.6415 36.9867C62.6415 37.4059 62.7201 37.7765 62.8774 38.0984C63.042 38.4128 63.2666 38.6598 63.5511 38.8395C63.8356 39.0191 64.1612 39.109 64.528 39.109C64.8724 39.109 65.183 39.0304 65.46 38.8732C65.7445 38.716 65.9728 38.4989 66.145 38.2219C66.3247 37.9449 66.4295 37.6342 66.4594 37.2899L66.6391 37.5144C66.6915 37.9561 66.6241 38.3566 66.437 38.716C66.2573 39.0678 65.9915 39.3485 65.6397 39.5581C65.2879 39.7603 64.8761 39.8613 64.4045 39.8613C63.888 39.8613 63.4276 39.7378 63.0233 39.4908C62.6191 39.2437 62.3009 38.9031 62.0689 38.4689C61.8443 38.0347 61.732 37.5406 61.732 36.9867C61.732 36.4402 61.848 35.9499 62.0801 35.5157C62.3122 35.074 62.6266 34.7259 63.0233 34.4714C63.4201 34.2169 63.8693 34.0896 64.3708 34.0896C64.9622 34.0896 65.4563 34.258 65.853 34.5949C66.2498 34.9243 66.4931 35.3734 66.5829 35.9424H66.3696V34.2693H67.223V39.3111Z" fill="#313339"/>
<path d="M74.4986 39.7939H73.634V36.6161C73.634 36.0322 73.5104 35.5943 73.2634 35.3023C73.0239 35.0029 72.6982 34.8532 72.2865 34.8532C71.987 34.8532 71.7063 34.9393 71.4443 35.1114C71.1823 35.2761 70.9689 35.5419 70.8043 35.9087C70.6396 36.268 70.5572 36.7359 70.5572 37.3123V39.7939H69.6926V34.2693H70.546V35.9536H70.4C70.4824 35.497 70.6246 35.1339 70.8267 34.8644C71.0363 34.5874 71.2834 34.389 71.5678 34.2693C71.8523 34.1495 72.148 34.0896 72.4549 34.0896C73.0912 34.0896 73.5891 34.2992 73.9484 34.7184C74.3152 35.1302 74.4986 35.729 74.4986 36.5151V39.7939Z" fill="#313339"/>
<path d="M79.5346 38.5026L80.1746 37.8625C80.4142 38.1545 80.6687 38.3978 80.9382 38.5924C81.2077 38.7796 81.4922 38.9218 81.7916 39.0191C82.0985 39.1165 82.4204 39.1651 82.7573 39.1651C83.3861 39.1651 83.8877 39.0191 84.262 38.7272C84.6438 38.4352 84.8347 38.046 84.8347 37.5594C84.8347 37.1401 84.67 36.8182 84.3406 36.5937C84.0187 36.3616 83.4685 36.1819 82.6899 36.0547C81.6718 35.89 80.9419 35.6429 80.5003 35.3136C80.0586 34.9767 79.8377 34.5013 79.8377 33.8875C79.8377 33.4383 79.9575 33.0416 80.1971 32.6972C80.4441 32.3528 80.781 32.0833 81.2077 31.8887C81.6419 31.6866 82.1322 31.5855 82.6787 31.5855C83.3 31.5855 83.8615 31.7016 84.363 31.9336C84.8646 32.1582 85.3212 32.5063 85.733 32.9779L85.1042 33.6067C84.7523 33.1875 84.3818 32.8806 83.9925 32.686C83.6107 32.4913 83.1728 32.394 82.6787 32.394C82.0873 32.394 81.6194 32.525 81.2751 32.787C80.9382 33.049 80.7697 33.4121 80.7697 33.8762C80.7697 34.2356 80.9232 34.5163 81.2301 34.7184C81.5371 34.9205 82.0499 35.0777 82.7685 35.19C83.839 35.3547 84.6026 35.6205 85.0592 35.9873C85.5234 36.3466 85.7554 36.8669 85.7554 37.5481C85.7554 38.0198 85.6282 38.439 85.3737 38.8058C85.1191 39.1726 84.7635 39.4608 84.3069 39.6704C83.8577 39.8725 83.3412 39.9736 82.7573 39.9736C82.121 39.9736 81.5296 39.8501 80.9831 39.603C80.4441 39.356 79.9613 38.9892 79.5346 38.5026Z" fill="#313339"/>
<path d="M90.5907 39.7939H89.3555C88.9662 39.7939 88.6705 39.6891 88.4684 39.4795C88.2663 39.2624 88.1652 38.9555 88.1652 38.5587V32.6523H89.0298V38.4801C89.0298 38.6598 89.0748 38.802 89.1646 38.9068C89.2544 39.0042 89.3892 39.0528 89.5688 39.0528H90.5907V39.7939ZM90.5121 35.0104H87.1097V34.2693H90.5121V35.0104Z" fill="#313339"/>
<path d="M97.2147 39.7939H96.3613V38.716L96.3501 38.4015V34.2693H97.2147V39.7939ZM96.4512 37.4022L96.6308 37.638C96.6608 38.0871 96.5822 38.4876 96.395 38.8395C96.2154 39.1913 95.9608 39.4683 95.6314 39.6704C95.3021 39.8725 94.9203 39.9736 94.4861 39.9736C93.8647 39.9736 93.3669 39.7752 92.9926 39.3785C92.6183 38.9817 92.4312 38.409 92.4312 37.6604V34.2693H93.2958V37.5706C93.2958 38.1096 93.4156 38.5213 93.6551 38.8058C93.8947 39.0828 94.2316 39.2213 94.6657 39.2213C94.9727 39.2213 95.2534 39.1464 95.5079 38.9967C95.7699 38.8395 95.9833 38.6261 96.148 38.3566C96.3202 38.0796 96.4212 37.7615 96.4512 37.4022Z" fill="#313339"/>
<path d="M103.974 39.7939V38.3005L103.962 38.278V37.1888C103.962 36.7247 103.884 36.3167 103.727 35.9648C103.569 35.613 103.349 35.3398 103.064 35.1451C102.787 34.943 102.465 34.8419 102.098 34.8419C101.739 34.8419 101.417 34.9355 101.133 35.1227C100.856 35.3098 100.639 35.5681 100.481 35.8975C100.324 36.2269 100.246 36.6049 100.246 37.0316C100.246 37.4583 100.324 37.8363 100.481 38.1657C100.646 38.4951 100.871 38.7534 101.155 38.9405C101.44 39.1277 101.765 39.2213 102.132 39.2213C102.476 39.2213 102.787 39.1427 103.064 38.9854C103.349 38.8282 103.577 38.6149 103.749 38.3454C103.929 38.0684 104.034 37.754 104.063 37.4022L104.232 37.6267C104.284 38.0684 104.213 38.4689 104.019 38.8282C103.831 39.1801 103.562 39.4608 103.21 39.6704C102.858 39.8725 102.458 39.9736 102.009 39.9736C101.492 39.9736 101.032 39.8463 100.627 39.5918C100.231 39.3373 99.9162 38.9892 99.6842 38.5475C99.4521 38.1058 99.3361 37.6005 99.3361 37.0316C99.3361 36.4701 99.4483 35.9686 99.6729 35.5269C99.905 35.0777 100.219 34.7259 100.616 34.4714C101.02 34.2169 101.473 34.0896 101.975 34.0896C102.349 34.0896 102.694 34.1682 103.008 34.3254C103.322 34.4826 103.584 34.6997 103.794 34.9767C104.004 35.2537 104.135 35.5756 104.187 35.9424H103.962V31.709H104.827V39.7939H103.974Z" fill="#313339"/>
<path d="M108.161 39.7939H107.297V34.2693H108.161V39.7939ZM108.33 32.1807C108.33 32.3603 108.27 32.51 108.15 32.6298C108.038 32.7421 107.896 32.7983 107.723 32.7983C107.551 32.7983 107.405 32.7421 107.285 32.6298C107.173 32.51 107.117 32.3603 107.117 32.1807C107.117 32.001 107.173 31.855 107.285 31.7427C107.405 31.623 107.551 31.5631 107.723 31.5631C107.896 31.5631 108.038 31.623 108.15 31.7427C108.27 31.855 108.33 32.001 108.33 32.1807Z" fill="#313339"/>
<path d="M113.047 39.9736C112.515 39.9736 112.04 39.8463 111.621 39.5918C111.201 39.3373 110.872 38.9892 110.632 38.5475C110.4 38.1058 110.284 37.6005 110.284 37.0316C110.284 36.4627 110.4 35.9574 110.632 35.5157C110.872 35.074 111.201 34.7259 111.621 34.4714C112.04 34.2169 112.515 34.0896 113.047 34.0896C113.586 34.0896 114.065 34.2169 114.484 34.4714C114.903 34.7259 115.229 35.074 115.461 35.5157C115.7 35.9574 115.82 36.4627 115.82 37.0316C115.82 37.6005 115.7 38.1058 115.461 38.5475C115.229 38.9892 114.903 39.3373 114.484 39.5918C114.065 39.8463 113.586 39.9736 113.047 39.9736ZM113.047 39.2213C113.421 39.2213 113.747 39.1277 114.024 38.9405C114.301 38.7534 114.518 38.4951 114.675 38.1657C114.832 37.8363 114.911 37.4583 114.911 37.0316C114.911 36.5974 114.832 36.2194 114.675 35.8975C114.518 35.5681 114.301 35.3098 114.024 35.1227C113.747 34.9355 113.421 34.8419 113.047 34.8419C112.68 34.8419 112.358 34.9355 112.081 35.1227C111.804 35.3098 111.587 35.5681 111.43 35.8975C111.273 36.2194 111.194 36.5974 111.194 37.0316C111.194 37.4583 111.273 37.8363 111.43 38.1657C111.587 38.4951 111.804 38.7534 112.081 38.9405C112.358 39.1277 112.68 39.2213 113.047 39.2213Z" fill="#313339"/>
</svg>
