<svg width="300" height="100" viewBox="0 0 300 100" fill="none" xmlns="http://www.w3.org/2000/svg">
<rect x="63.5" y="13.5" width="173" height="73" rx="36.5" stroke="#25262C"/>
<path d="M200 0C227.614 0 250 22.3858 250 50C250 77.6142 227.614 100 200 100H100C72.3858 100 50 77.6142 50 50C50 22.3858 72.3858 0 100 0H200ZM100 14C80.1177 14 64 30.1177 64 50C64 69.8823 80.1177 86 100 86H200C219.882 86 236 69.8823 236 50C236 30.1177 219.882 14 200 14H100Z" fill="#FFCC00"/>
<path d="M0 0V0C27.6142 0 50 22.3858 50 50V50C50 77.6142 27.6142 100 0 100V100V0Z" fill="#00CA72"/>
<path d="M250 50C250 22.3858 272.386 0 300 0V0V100V100C272.386 100 250 77.6142 250 50V50Z" fill="#FB275D"/>
</svg>
