<svg width="363" height="100" viewBox="0 0 363 100" fill="none" xmlns="http://www.w3.org/2000/svg">
<g clip-path="url(#clip0_2097_4)">
<path d="M349.098 14.817C351.085 14.817 351.111 16.1503 351.131 17.6993C351.131 17.915 351.137 18.1438 351.144 18.3725C351.15 18.4902 351.15 18.8889 351.15 20.5817H354.137C354.105 20.1307 354.092 19.4444 354.072 18.6732C354.046 17.8627 354.026 16.9477 353.987 16.1503C353.909 14.634 353.294 14.1765 352.614 13.817L352.34 13.6667L352.601 13.4771C353.301 12.9608 354.275 12.268 354.275 10.3072C354.275 8.81699 353.804 7.71242 352.824 6.94771C351.758 6.13725 350.595 6.13725 349.242 6.13725H342.856V20.5752H345.752V14.817H349.098ZM348.68 8.5817C349.915 8.5817 351.451 8.5817 351.451 10.5294C351.451 11.3987 351.15 11.9608 350.536 12.2484C350.046 12.4771 349.451 12.4837 348.856 12.4837H345.752V8.5817H348.68Z" fill="#AEB1CB"/>
<path d="M348.307 26.6405C355.686 26.6405 361.686 20.6732 361.686 13.3333C361.686 5.98039 355.686 0 348.307 0C340.935 0 334.935 5.98039 334.935 13.3399C334.935 20.6732 340.941 26.6405 348.307 26.6405ZM348.307 2.37255C354.353 2.37255 359.268 7.30719 359.268 13.3725C359.268 19.3137 354.346 24.1503 348.307 24.1503C342.262 24.1503 337.34 19.3203 337.34 13.3725C337.347 7.30719 342.262 2.37255 348.307 2.37255Z" fill="#AEB1CB"/>
<path d="M359.673 81.9869C358.288 79.6209 356.17 78.3856 353.863 77.4379C359.007 75.6405 361.837 71.3987 360.654 65.2549C359.392 58.7124 352.667 57.1961 347.556 56.732H313.948V98.8758H325.601V84.0261L326.15 83.7516C331.301 84.0131 336.686 83.4314 341.811 83.7516C346.275 84.0327 348.909 85.4118 349.235 90.7778C349.392 93.3856 348.713 96.5752 349.784 98.8758H361.68C359.928 93.634 362.497 86.7908 359.673 81.9869ZM345.157 74.5033H325.601V66.1438H345C346.817 66.1438 348.615 68.2876 348.608 70.3203C348.601 72.281 346.961 74.5033 345.157 74.5033Z" fill="#AEB1CB"/>
<path d="M159.935 32.3595H131.196V25.2484H158.817V15.8235H131.196V9.42484H159.451V0H119.536V42.1438H159.935V32.3595Z" fill="#AEB1CB"/>
<path d="M278.164 81.9739H305.784V72.549H278.164V66.1438H306.425V56.719H266.51V98.8627H306.902V89.085H278.164V81.9739Z" fill="#AEB1CB"/>
<path d="M29.8498 89.2614C21.6864 90.183 11.5622 87.6013 12.3727 76.1961C13.0655 66.4118 23.0067 65.3268 29.9936 66.1699C33.8694 66.634 39.1439 68.4118 40.3139 73.085H52.7649C52.7649 61.6471 42.059 57.085 33.3662 56.1961C20.5296 54.8693 1.22891 56.2222 0.0785789 74.7712C-1.01946 92.5033 9.58838 98.9673 23.9413 99.5817C32.7387 99.9608 45.7191 98.6797 50.9152 89.6013C52.2616 87.2484 52.791 84.7516 52.9217 81.9673H40.3073C39.1766 86.8562 33.8956 88.7974 29.8498 89.2614Z" fill="#AEB1CB"/>
<path d="M196.471 56.7124L171.288 56.719V98.8562H183.105V84.6405H196.464C203.124 84.1111 210.445 81.1765 211.072 72.634C211.896 61.3333 205.615 57.4837 196.471 56.7124ZM197.49 74.2222C196.811 74.7843 194.889 75.3922 194.066 75.3922H183.098V66.1438H194.699C195.706 66.1438 197.503 67.085 198.131 68.0131C199.249 69.6601 199.033 72.9542 197.49 74.2222Z" fill="#AEB1CB"/>
<path d="M131.379 56.7516L112.353 98.8627H124.249L127.909 91.0261L150.726 91.0654L154.347 98.8627H167.118L146.765 56.7059L131.379 56.7516ZM131.994 81.6144L139.098 65.7908L146.523 81.6144H131.994Z" fill="#AEB1CB"/>
<path d="M20.4773 42.1438H32.4511V9.77778H48.7322V0H4.18969V9.77778H20.4773V42.1438Z" fill="#AEB1CB"/>
<path d="M215.562 66.5033H231.843V98.8627H243.66V66.7647L243.902 66.5033H260.105V56.719H215.562V66.5033Z" fill="#AEB1CB"/>
<path d="M96.3662 15.2941H70.8237V0H59.0067V98.8693H70.8237V82.1569H96.3662V98.8693H108.183V0H96.3662V15.2941ZM96.3727 72.0131H70.8302V25.4248H96.3727V72.0131Z" fill="#AEB1CB"/>
<path d="M360.131 31.902H172.451V42.3595H360.131V31.902Z" fill="#AEB1CB"/>
</g>
<defs>
<clipPath id="clip0_2097_4">
<rect width="362.091" height="100" fill="white"/>
</clipPath>
</defs>
</svg>
